<?xml version="1.0" encoding="utf-8"?>
<!-- Generator: Adobe Illustrator 26.0.0, SVG Export Plug-In . SVG Version: 6.00 Build 0)  -->
<svg version="1.1" id="Layer_1" xmlns="http://www.w3.org/2000/svg" xmlns:xlink="http://www.w3.org/1999/xlink" x="0px" y="0px"
	 viewBox="0 0 500 500" style="enable-background:new 0 0 500 500;" xml:space="preserve">
<style type="text/css">
	.st0{fill:#020202;}
	.st1{fill:#060606;}
	.st2{fill:#0D0D0D;}
	.st3{fill:#004100;}
</style>
<g>
	<path class="st0" d="M175.4,258.5c-4.9,19.5-9.4,39.1-12.6,59c-1.4,8.7-2.7,17.4-2.6,26.2c0.1,6.6,1.8,8.6,9.1,5.5
		c3.5-1.5,6.3-4.1,9.1-6.5c4.5-3.7,8.4-8,12.3-12.4c0.7-0.9,1.4-1.8,2.5-2.4c0.4,0.7-0.1,1.1-0.3,1.6c-4.4,8.8-10,16.7-16.5,24.1
		c-3.6,4.1-7.6,4.8-12.5,3.1c-5.6-2-10.7-4.9-14.8-9.2c-2.6-2.7-3.9-5.7-3.6-9.7c2.1-30.5,2.1-30.5,8.7-58.6
		c2.9-12.3-9.6,41.4,2.6-11.5c3.5-12.1,12.5-49.7,16.1-61.9c0.1-0.4,0.2-0.9,0.4-1.7c-4.2,1-8.2,1.9-12.2,2.7
		c-12.7,2.7-25.3,5.6-38.3,6.4c-9,0.6-17.5-0.8-25.3-5.6c-9.5-5.7-13.5-16.5-12-25.6c1.1-6.7,5.1-10.1,11.9-10.3
		c11.2-0.4,21,3.2,29.3,10.7c3.1,2.8,6,5.8,8.5,9.2c0.9,1.2,2.7,4.3,3.2,5.8c0.5,1.5-2.9-2.5-1.7-2.8c15.5-3.2,2.7-0.6,48.8-9.6
		c25.1-5.9,48-10.5,71.6-19.1c6.5-2.4,13.2-3.6,20.1-4.1c11-0.8,20,6.7,21.4,17.6c0.2,1.6,0.3,3.2,0.4,4.9c-7-3.5-14.3-2.6-21.5-1.9
		c-26,2.4-51.2,9-76.6,14.4c-5.8,1.2-7.3,5.4-9.5,9.3c-3.9,7.2-6,15.1-8.3,22.9c-2.1,7.3-4,14.7-6,22c-0.4,2.1-0.4,2.1-0.9,3.5
		c0,0,0,0,0,0c-0.1,0-0.2,0.1-0.2,0.1c0,0.1,0,0.3,0.1,0.4c-0.1,0.3-0.2,0.7-0.3,1c-0.2,1.6,0.2-2.9,0.4-1.6
		C176.5,254.4,175.9,256.8,175.4,258.5z M128.5,195.6c-5.6-11.4-18.8-19.2-31-18.6c-2.3,0.1-4,1.1-4.7,3.5
		c-1.2,4.2-0.1,7.8,3.5,10.5c2.5,1.8,5.3,3,8.2,3.8C112.4,197,120.4,196.5,128.5,195.6z"/>
	<path class="st1" d="M320.7,333c2.7-2.5,4.3-5.5,8.4-5.4c3.1,0.1,5.1-2,6.2-4.9c1.9-5.2,2.6-10.6,3.7-16c1.5-7.2,2.9-14.4,4.4-21.7
		c-8.4-0.7-15,4.8-15.7,12.9c-0.1,1.2-0.5,1.9-1.6,2.4c-1.7,0.7-3.3,1.6-5.2,2.5c0.6-7.2,3.3-13,9.6-16.6c4.9-2.8,10.3-3.6,15.8-4
		c5.2-0.3,10.4-0.3,15.5,0.8c3.6,0.8,7,1.9,8.2,6c1.2,4.3,0.2,8.2-2.9,11.4c-3.1,3.3-7.3,4.9-11.5,6.2c0,0.9,0.9,0.8,1.3,1
		c2.2,0.9,4.4,1.8,6.3,3.2c5.6,3.9,6.4,10,1.8,15.1c-3.4,3.8-7.9,5.8-12.8,7.1c-2.7,0.7-5.5,1.1-8.4,1
		C336.2,333.6,328.7,333.3,320.7,333z M333.8,328.5c6.6,1.2,12.8,2.5,19.1,1.1c3.9-0.8,6.3-3.6,6.9-7.6c1.2-8.3-3.7-13.8-12.2-13.9
		c-1.4,0-1.8,0.4-2,1.7c-0.8,5.2-2.6,10-6.2,14C337.8,325.5,336,326.9,333.8,328.5z M348.5,305.9c6.8-0.2,12.1-3.8,13.8-9.3
		c1.8-5.8-0.2-10.2-5.5-11.6c-1.3-0.3-2.7-0.4-4.1-0.6c-1.6-0.3-2.2,0.3-2.5,1.9c-1,5.8-2.1,11.6-3.4,17.3
		C346.5,305.4,346.5,306.4,348.5,305.9z"/>
	<path class="st1" d="M296,286.4c-4.7-0.5-9-0.9-13.2,0.6c-4.5,1.6-7.3,4.8-7.8,9.6c-0.3,2.6-1.2,4-3.5,4.8c-1.1,0.4-2.2,1-3.3,1.6
		c-0.5-7.7,5.9-16,13.8-18.3c3.4-1,6.9-1.4,10.4-1.6c3.6-0.2,7.1-0.6,10.6-1.4c1-0.2,1.3,0,1.4,1c0.2,10.8,1.4,21.6,2.3,32.4
		c0.3,3.3,0.5,6.7,1.3,10c1,4.3,2.3,5.3,6.7,5.1c0.8,0,1.7,0,2.5,0c0.3,1.8-0.6,2.4-2.1,2.6c-4.1,0.6-8.3,1.3-12.4,2.1
		c-1.4,0.3-1.7-0.1-1.8-1.4c-0.3-4.5-0.8-9-1-13.5c-0.1-1.4-0.4-2-2-1.9c-5.1,0.1-10.2,0.1-15.4,0c-1.2,0-1.9,0.4-2.5,1.5
		c-2.2,3.8-4.7,7.4-7.8,10.4c-5.9,5.7-15.3,6.8-22.3,2.9c-1.5-0.9-2.3-1.6-0.5-3c1.1-0.9,1.9-2.7,3.1-2.9c1.1-0.3,1.8,1.8,2.9,2.6
		c3.5,2.6,7.2,2.5,11,0.8c3.1-1.4,5.3-3.8,7.3-6.4c2.9-3.7,5.3-7.7,7.6-11.7C286,303.6,290.9,295.2,296,286.4z M297.1,290.5
		c-0.1,0-0.3-0.1-0.4-0.1c-4.8,8.3-9.5,16.6-14.4,25.1c5.3,0,10.3-0.1,15.2,0c1.7,0,1.8-0.6,1.7-2c-0.4-3.5-0.6-7-0.9-10.5
		C297.8,298.8,297.5,294.6,297.1,290.5z"/>
	<path class="st1" d="M246,326c0.1,1.9-0.8,3-1.9,4.1c-4.2,4.1-9,5.8-14.9,5.4c-9.4-0.7-18.8-0.9-28.1-1.3c-0.3,0-0.7-0.1-1-0.1
		c-0.2-0.2-0.4-0.5-0.6-0.7c1.5-1.3,3.1-2.5,4.5-3.8c0.7-0.6,1.4-0.5,2.1-0.5c4.7-0.1,6.6-1.4,8.1-5.9c2.2-6.7,3.2-13.6,4.5-20.5
		c1.3-6.8,3.6-12.9,9.5-17.1c5.1-3.6,10.6-4.9,16.6-2.4c1.2,0.5,1.9,1,1.5,2.5c-0.5,1.8-0.9,3.7-1.2,5.6c-0.2,1-0.6,1.4-1.6,1.3
		c-1.2-0.1-0.8-0.8-0.8-1.5c-0.2-3.6-1.2-5.2-3.8-6.1c-3.2-1-6.1-0.2-8,2.2c-2.4,3-3,6.6-3.8,10.2c-1,4.9-1.9,9.9-2.9,14.8
		c-1.9,9-3.6,11.6-11.4,17.3c8,0,15.6,1.4,23.3,0.5C239.6,329.6,242.8,328.1,246,326z"/>
	<path class="st1" d="M370.5,332c0-0.2,0-0.3,0-0.3c1.4-1.5,2.5-3.5,4.1-4.2c1.7-0.8,3.1,1.6,4.7,2.3c4.2,1.9,8.5,3,13.2,1.4
		c5.4-1.8,7.9-8.2,5-13.1c-1.7-2.9-4.2-4.9-6.6-7.1c-2.2-2-4.5-4-6.6-6c-4.7-4.5-5.4-10.7-1.5-16c4.6-6.3,11.1-8.6,18.7-7.7
		c2.5,0.3,4.9,1.1,7.3,2c1.4,0.5,1.3,1.2,0.7,3c-0.5,1.3-0.7,2.7-0.8,4.1c-0.1,1.5-0.5,1.8-1.6,1.8c-1.2,0-0.9-0.7-0.9-1.4
		c0.1-2.6-1.3-4.4-3.6-5.6c-2.7-1.5-5.9-1.8-8.8-1c-7.4,2-9.6,9.1-5.7,14.1c2.1,2.7,4.9,4.8,7.5,7.1c2.2,2,4.6,3.8,6.5,6.2
		c4,5,4,10.8-0.3,15.6c-5.9,6.6-13.6,8.3-22.1,7.4C376.4,334.2,373.3,333.5,370.5,332z"/>
	<path class="st2" d="M206.4,212.8c4.1,1,5.1,2.7,3.8,6.5c-1,2.9-2.2,5.8-2.7,8.9c-0.2,1.2-0.6,3,0.8,3.5c1.3,0.4,1.9-1.3,2.4-2.3
		c2.8-5.1,5.3-10.3,5.7-16.2c2.2,0.6,3.1,2,2.7,4.2c-0.7,3.7-2.4,7-3,10.7c-0.1,0.8-0.3,1.7-0.3,2.5c0,0.5-0.3,1.1,0.3,1.4
		c0.5,0.2,0.9-0.2,1.2-0.5c1.9-1.9,4-3.6,4.5-6.6c0.6-3.5,2.1-6.8,4.3-9.8c1.7-2.4,3-2.4,4.8-0.2c2.1,2.5,2.2,3.8,0.5,6.6
		c-1.1,1.9-2.5,3.5-4.2,4.7c-0.5,0.4-1,0.7-1.6,0.7c-0.7,0-1.5-1.2-1.9,0.3c-0.3,1.5-1.2,3.1-0.1,4.6c0.8,1.1,2.1,0.4,3,0
		c2.9-1.3,4.9-3.5,6.6-6.1c0.5-0.7,0.6-1.8,2.1-1.6c-1.5,3.5-4,6-6.7,8.4c-3.6,3.3-5.9,2.5-7.4-2.2c-0.1-0.3-0.1-0.6-0.2-1.1
		c-1,1.2-2,2.2-2.9,3.3c-2.5,2.7-4.6,2.3-5.9-1.2c-0.1-0.3-0.2-0.6-0.3-1c-0.6,0.8-1.1,1.6-1.7,2.3c-2,2.4-4.4,2-5.7-0.9
		c-0.7-1.7-0.6-3.4-0.2-5.2c0.5-2.2,1.1-4.4,1.7-6.6C206.9,217.3,206.9,215.7,206.4,212.8z M230.8,217c-0.2-0.1-0.4-0.2-0.6-0.3
		c-1.8,2.6-3.6,5.2-5.4,7.8c-0.3,0.4-0.6,1,0.1,1.3c0.5,0.3,0.9-0.1,1.2-0.4C228.2,222.9,229.7,220.1,230.8,217z"/>
	<path class="st2" d="M199.6,220.4c0.6-1.4,1.4-2.6,0.9-4c-0.2-0.8-0.6-1.3-1.3-0.4c-1.1,1.4-2.4,2.6-3.2,4.2
		c-2.1,4.4-5.4,8.5-4.6,13.9c-2.3-0.7-3.2-2-2.6-4.1c0.8-3.1,1.7-6.2,2.7-9.2c0.9-2.5,1.6-5,0-7.9c2.7,0.5,4.4,1.5,4.6,4.4
		c1-1.3,1.8-2.4,2.7-3.4c1.2-1.4,2.5-1.3,3.6,0.2c0.5,0.7,0.9,1.4,1.2,2.2c0.5,1.2,1,2.5-0.1,3.7C202.6,221,201.2,221,199.6,220.4z"
		/>
	<path class="st0" d="M176.2,255.4c0-0.1-0.1-0.3-0.1-0.4c0,0,0.1-0.1,0.2-0.1C176.3,255.1,176.3,255.2,176.2,255.4z"/>
</g>
<g>
	<path class="st3" d="M176.8,251.8c18.1,1.5,36.4,2.3,52.6,12C213,255,194.8,254.2,176.8,251.8z"/>
	<path class="st3" d="M189.5,251.8c4-5.9,9.3-10.4,16-13.6c-5.3,4.7-10.4,9.4-15.6,14C189.7,252.1,189.6,252,189.5,251.8z"/>
	<path class="st3" d="M215.8,238.9c-7.3,4.7-14.1,9.2-21,13.6C201.2,247.1,207.4,241.5,215.8,238.9z"/>
	<path class="st3" d="M201.1,239.1c-5,4.3-10.1,8.5-15.1,12.8c-0.1-0.1-0.2-0.3-0.3-0.4C190.2,246.7,194.8,241.8,201.1,239.1z"/>
	<path class="st3" d="M214.3,242.6c-5.6,3.5-11.2,7-16.8,10.5c-0.2-0.3-0.3-0.5-0.5-0.8c5.6-3.5,11.2-7.1,16.7-10.6
		C214,242,214.1,242.3,214.3,242.6z"/>
	<path class="st3" d="M199.6,252.9c6.1-3.5,11.7-7.7,18.5-10.1c-6,3.6-12,7.3-18,10.9C200,253.4,199.8,253.1,199.6,252.9z"/>
	<path class="st3" d="M224.5,247.2c-5.7,2.5-10.5,6.8-17,7.7c5.5-2.8,11.1-5.6,16.6-8.4C224.3,246.7,224.4,247,224.5,247.2z"/>
	<path class="st3" d="M181,250.6c-0.1-0.1-0.3-0.3-0.4-0.4c2.6-4.6,5.7-7.1,10-10.1c0.1,0.1,0.2,0.3,0.4,0.4"/>
	<path class="st3" d="M195.3,268.5c-4.1-3.8-6.5-8.6-8.1-13.8c0.2-0.1,0.4-0.2,0.5-0.3C190.3,259,192.8,263.8,195.3,268.5z"/>
	<path class="st3" d="M193.3,250.3c4.8-3.4,9.6-6.8,14.4-10.3c0.2,0.3,0.4,0.5,0.6,0.8c-4.8,3.4-9.6,6.9-14.4,10.3
		C193.7,250.9,193.5,250.6,193.3,250.3z"/>
	<path class="st3" d="M221.7,245.5c-5.5,3.1-10.2,5.1-15.7,8.2c-0.1-0.3-1,0.5-1.2,0.3C210.8,251.8,215,246.4,221.7,245.5z"/>
	<path class="st3" d="M183.7,250.9c2.7-5.3,7-8.7,12.2-11.1C191.8,243.5,187.8,247.2,183.7,250.9z"/>
	<path class="st3" d="M212,254.6c5.4-2.4,9.8-4.6,16-5.1c-5.5,2.3-10.3,3.5-15.8,5.7C212.2,255.1,212.1,254.9,212,254.6z"/>
	<path class="st3" d="M224,260.3c2.7-2.1,11-2.2,16-0.7C234.6,259.8,229.4,260.1,224,260.3z"/>
	<path class="st3" d="M237.4,255.8c-6.3,0.6-11.4,0.1-17.2,0.6C223.5,254.6,232.5,254.7,237.4,255.8z"/>
	<path class="st3" d="M199.4,267.8c-3.5-3.9-5.6-8.2-5.7-13.5C195.6,258.7,197.4,263.1,199.4,267.8z"/>
	<path class="st3" d="M180.3,253c1.5,4.2,3.1,8.3,4.6,12.5c-0.3,0.1-0.5,0.2-0.8,0.3c-1.6-4.1-3.3-8.2-4.9-12.3
		C179.5,253.3,179.9,253.1,180.3,253z"/>
	<path class="st3" d="M207.7,257.2c2.4,3.7,5.7,6.9,6.4,11.7c-2.3-3.8-4.7-7.5-7-11.3C207.3,257.5,207.5,257.4,207.7,257.2z"/>
	<path class="st3" d="M202.9,267.6c-4.1-3.4-6.5-7.8-6.6-12.1C198.6,259.6,200.7,263.5,202.9,267.6z"/>
	<path class="st3" d="M231.2,251.5c-5.5,1.5-10.5,2.9-15.7,4.4C218.1,253.6,225.3,251.6,231.2,251.5z"/>
	<path class="st3" d="M215.7,256.3c5.6-1.2,11.2-2.5,16.8-3.7c0,0.2,0.1,0.4,0.1,0.6c-5.6,1.3-10.4,1.5-16,2.8
		C216.7,255.8,215.8,256.6,215.7,256.3z"/>
	<path class="st3" d="M205.1,256.1c2.3,4.2,4.7,8.4,7,12.5c-0.2,0.1-0.3,0.2-0.5,0.3c-2.5-4.1-5-8.2-7.5-12.2
		C204.5,256.5,204.8,256.3,205.1,256.1z"/>
	<path class="st3" d="M233.9,257.7c-4.8,0.7-8.8,0.4-13.6,1.1c0-0.3-0.1-0.7-0.1-1c4.8-0.6,8.9-0.1,13.7-0.7
		C233.9,257.2,233.9,257.5,233.9,257.7z"/>
	<path class="st3" d="M196.6,267.3c-3.2-3.8-5.5-8.2-6.6-13c0.2-0.1,0.5-0.2,0.7-0.3c0.9,2.3,1.6,4.6,2.6,6.8
		C194.3,263,195.5,265.1,196.6,267.3z"/>
	<path class="st3" d="M208.3,267.5c-2.5-3.8-5-7.7-7.5-11.5c0.3-0.2,0.7-0.5,1-0.7c1.1,2,2.1,3.9,3.3,5.9c1.2,2,2.5,4,3.8,6
		C208.6,267.3,208.4,267.4,208.3,267.5z"/>
	<path class="st3" d="M182.8,254c1.7,3.8,3.4,7.6,5.1,11.5C184.9,262.3,183.2,258.4,182.8,254z"/>
	<path class="st3" d="M203.5,252.8c4.4-2.6,8.7-5.2,13.1-7.8c0.1,0.2,0.2,0.3,0.3,0.5c-4.3,2.7-8.7,5.4-13,8
		C203.8,253.3,203.6,253.1,203.5,252.8z"/>
	<path class="st3" d="M204.5,266.3c-2.1-3.5-4.2-7-6.2-10.5c0.3-0.2,0.5-0.3,0.8-0.5c2,3.5,4.1,7,6.1,10.5
		C205,265.9,204.8,266.1,204.5,266.3z"/>
	<path class="st3" d="M226.2,261.5c4.3-1.7,8.6-0.8,12.9,0.1C234.8,261.6,230.5,261.6,226.2,261.5z"/>
	<path class="st3" d="M177.9,249.2c3-3.1,6.1-6.2,9.1-9.3c0.2,0.2,0.4,0.4,0.6,0.5c-3.1,3.1-6.1,6.2-9.2,9.2
		C178.2,249.5,178,249.3,177.9,249.2z"/>
	<path class="st3" d="M210.6,258.3c2.2,3.2,4.5,6.5,6.7,9.7c-0.2,0.2-0.5,0.3-0.7,0.5c-2.2-3.3-4.4-6.5-6.6-9.8
		C210.2,258.6,210.4,258.5,210.6,258.3z"/>
	<path class="st3" d="M190.1,265.4c-1.8-3.6-3.7-7.2-5.5-10.9c0.3-0.1,0.5-0.3,0.8-0.4c1.8,3.6,3.6,7.3,5.4,10.9
		C190.6,265.1,190.4,265.2,190.1,265.4z"/>
	<path class="st3" d="M239.8,264.5c-3.4-0.5-6.8-0.9-10.3-1.4c0-0.1,0-0.3,0.1-0.4c3.4,0.5,6.8,0.9,10.2,1.4
		C239.8,264.3,239.8,264.4,239.8,264.5z"/>
	<path class="st3" d="M240.8,268.2c-3.2-1.2-6.5-2.3-9.7-3.5c0-0.1,0.1-0.3,0.1-0.4c3.2,1.2,6.5,2.3,9.7,3.5
		C240.8,268,240.8,268.1,240.8,268.2z"/>
	<path class="st3" d="M221.1,260.7c1.9,2.7,3.8,5.3,5.7,8c-0.1,0-0.1,0.1-0.2,0.1c-2.1-2.5-4.2-5-6.3-7.5
		C220.6,261.1,220.9,260.9,221.1,260.7z"/>
	<path class="st3" d="M218.3,259.3c1.9,2.6,3.8,5.2,5.7,7.8c-0.3,0.3-0.7,0.5-1,0.8c-1.9-2.6-3.7-5.2-5.6-7.8
		C217.7,259.8,218,259.5,218.3,259.3z"/>
	<path class="st3" d="M178,253.8c1.1,3.3,2.2,6.5,3.3,9.8c-0.2,0.1-0.5,0.2-0.7,0.3c-1.1-3.3-2.2-6.5-3.3-9.8
		C177.5,253.9,177.7,253.8,178,253.8z"/>
	<path class="st3" d="M215,259.1c2.1,2.8,4.3,5.5,6.4,8.3c-0.2,0.1-0.4,0.3-0.6,0.4c-2.1-2.8-4.2-5.6-6.3-8.4
		C214.7,259.3,214.9,259.2,215,259.1z"/>
	<path class="st3" d="M213.2,258.8c1.7,2.4,3.4,4.8,5.1,7.2c-0.1,0.1-0.2,0.2-0.4,0.3c-1.8-2.3-3.7-4.6-5.5-6.8
		C212.7,259.2,213,259,213.2,258.8z"/>
	<path class="st3" d="M224.6,262.2c1.2,2.1,2.4,4.1,3.7,6.2c-0.2,0.1-0.4,0.2-0.6,0.3c-1.3-2-2.5-4.1-3.8-6.1
		C224.2,262.5,224.4,262.4,224.6,262.2z"/>
	<path class="st3" d="M230.6,265.2c1.7,1.9,3.4,3.8,5.1,5.7c-0.1,0.1-0.3,0.3-0.4,0.4c-1.7-1.9-3.4-3.8-5.1-5.6
		C230.3,265.5,230.5,265.4,230.6,265.2z"/>
	<path class="st3" d="M230.3,269.6c-1.3-2.1-2.7-4.3-4-6.4c0.1-0.1,0.3-0.2,0.4-0.3c1.4,2.1,2.7,4.3,4.1,6.4
		C230.7,269.4,230.5,269.5,230.3,269.6z"/>
</g>
</svg>
